<svg width="19" height="18" viewBox="0 0 19 18" fill="none" xmlns="http://www.w3.org/2000/svg">
<path d="M17.4576 9C17.4576 13.4187 13.8763 17 9.45755 17C5.0388 17 1.45755 13.4187 1.45755 9C1.45755 4.58125 5.0388 1 9.45755 1C13.8763 1 17.4576 4.58125 17.4576 9Z" stroke="#111B3F" stroke-width="1.5"/>
<mask id="path-2-inside-1_45_187" fill="white">
<path d="M6.85129 12.6375H5.88879V5.94373H6.85129V8.96873V12.6375Z"/>
</mask>
<path d="M6.85129 12.6375H5.88879V5.94373H6.85129V8.96873V12.6375Z" fill="#111B3F"/>
<path d="M6.85129 12.6375V14.1375H8.35129V12.6375H6.85129ZM5.88879 12.6375H4.38879V14.1375H5.88879V12.6375ZM5.88879 5.94373V4.44373H4.38879V5.94373H5.88879ZM6.85129 5.94373H8.35129V4.44373H6.85129V5.94373ZM6.85129 11.1375H5.88879V14.1375H6.85129V11.1375ZM7.38879 12.6375V5.94373H4.38879V12.6375H7.38879ZM5.88879 7.44373H6.85129V4.44373H5.88879V7.44373ZM5.35129 5.94373V8.96873H8.35129V5.94373H5.35129ZM5.35129 8.96873V12.6375H8.35129V8.96873H5.35129Z" fill="#111B3F" mask="url(#path-2-inside-1_45_187)"/>
<mask id="path-4-inside-2_45_187" fill="white">
<path d="M8.26379 5.94373H10.8638C13.3388 5.94373 14.4263 7.71248 14.4263 9.29373C14.4263 11.0125 13.0825 12.6437 10.8763 12.6437H8.26379V5.94373ZM9.22629 11.775H10.7575C12.9388 11.775 13.4388 10.1187 13.4388 9.29373C13.4388 7.94998 12.5825 6.81248 10.7075 6.81248H9.22629V11.775Z"/>
</mask>
<path d="M8.26379 5.94373H10.8638C13.3388 5.94373 14.4263 7.71248 14.4263 9.29373C14.4263 11.0125 13.0825 12.6437 10.8763 12.6437H8.26379V5.94373ZM9.22629 11.775H10.7575C12.9388 11.775 13.4388 10.1187 13.4388 9.29373C13.4388 7.94998 12.5825 6.81248 10.7075 6.81248H9.22629V11.775Z" fill="#111B3F"/>
<path d="M8.26379 5.94373V4.44373H6.76379V5.94373H8.26379ZM8.26379 12.6437H6.76379V14.1437H8.26379V12.6437ZM9.22629 11.775H7.72629V13.275H9.22629V11.775ZM13.4388 9.29373H14.9388H13.4388ZM9.22629 6.81248V5.31248H7.72629V6.81248H9.22629ZM8.26379 7.44373H10.8638V4.44373H8.26379V7.44373ZM10.8638 7.44373C11.7145 7.44373 12.1893 7.73316 12.4629 8.03436C12.7637 8.36548 12.9263 8.82944 12.9263 9.29373H15.9263C15.9263 8.17676 15.5452 6.96573 14.6834 6.01715C13.7946 5.03866 12.4881 4.44373 10.8638 4.44373V7.44373ZM12.9263 9.29373C12.9263 10.2092 12.2292 11.1437 10.8763 11.1437V14.1437C13.9359 14.1437 15.9263 11.8157 15.9263 9.29373H12.9263ZM10.8763 11.1437H8.26379V14.1437H10.8763V11.1437ZM9.76379 12.6437V5.94373H6.76379V12.6437H9.76379ZM9.22629 13.275H10.7575V10.275H9.22629V13.275ZM10.7575 13.275C12.2829 13.275 13.4053 12.6685 14.1053 11.758C14.7504 10.919 14.9388 9.95281 14.9388 9.29373H11.9388C11.9388 9.45964 11.8772 9.73407 11.727 9.92942C11.6623 10.0136 11.5776 10.0892 11.4525 10.1487C11.3255 10.2091 11.1099 10.275 10.7575 10.275V13.275ZM14.9388 9.29373C14.9388 8.30651 14.6203 7.27867 13.8415 6.49314C13.054 5.69876 11.9554 5.31248 10.7075 5.31248V8.31248C11.3346 8.31248 11.6017 8.49494 11.711 8.60524C11.8292 8.72441 11.9388 8.93719 11.9388 9.29373H14.9388ZM10.7075 5.31248H9.22629V8.31248H10.7075V5.31248ZM7.72629 6.81248V11.775H10.7263V6.81248H7.72629Z" fill="#111B3F" mask="url(#path-4-inside-2_45_187)"/>
<path d="M6.2513 4.54995C6.2513 4.51413 6.26627 4.48461 6.28479 4.46597C6.30403 4.44659 6.33486 4.4312 6.37005 4.4312C6.40524 4.4312 6.43607 4.44659 6.45531 4.46597C6.47383 4.48461 6.4888 4.51413 6.4888 4.54995C6.4888 4.61416 6.43426 4.6687 6.37005 4.6687C6.33486 4.6687 6.30403 4.65331 6.28479 4.63394C6.26627 4.61529 6.2513 4.58577 6.2513 4.54995Z" fill="#111B3F" stroke="#111B3F" stroke-width="1.5"/>
</svg>