<?xml version="1.0" encoding="UTF-8" standalone="no"?>
<svg
   width="771.91"
   height="1000"
   version="1.1"
   id="svg3"
   sodipodi:docname="logomark2.svg"
   inkscape:version="1.4.2 (ebf0e940d0, 2025-05-08)"
   xmlns:inkscape="http://www.inkscape.org/namespaces/inkscape"
   xmlns:sodipodi="http://sodipodi.sourceforge.net/DTD/sodipodi-0.dtd"
   xmlns="http://www.w3.org/2000/svg"
   xmlns:svg="http://www.w3.org/2000/svg">
  <defs
     id="defs3" />
  <sodipodi:namedview
     id="namedview3"
     pagecolor="#ffffff"
     bordercolor="#000000"
     borderopacity="0.25"
     inkscape:showpageshadow="2"
     inkscape:pageopacity="0.0"
     inkscape:pagecheckerboard="0"
     inkscape:deskcolor="#d1d1d1"
     inkscape:zoom="0.41"
     inkscape:cx="385.36585"
     inkscape:cy="500"
     inkscape:window-width="1920"
     inkscape:window-height="1011"
     inkscape:window-x="0"
     inkscape:window-y="32"
     inkscape:window-maximized="1"
     inkscape:current-layer="svg3" />
  <g
     id="g3"
     transform="matrix(0.92018826,0,0,0.92018826,31.708491,41.517949)">
    <rect
       style="fill:#ffffff;stroke:none;stroke-width:3.62335"
       id="rect3"
       width="833"
       height="1054.8633"
       x="-30.545013"
       y="-27.431654" />
    <path
       d="m 484.01,894.29 c 41.74,5.62 92.28,-17 92.42,-17 18.05,-7.08 35.21,-22.85 51.4,-42.2 a 177.88,177.88 0 0 0 33.3,-61.6 1.46,1.46 0 0 0 0,-0.2 c 3.12,-12.9 4.4,-31.09 5.05,-51.11 a 2.17,2.17 0 0 0 0,-0.36 C 662.04,680.54 651.54,645.68 632.68,619.27 624.54,606 614.44,592.39 595.07,576.35 a 2.55,2.55 0 0 1 -0.94,-2 v -4.46 a 2.58,2.58 0 0 1 2,-2.5 c 7.67,-1.83 14.79,-4.68 20.82,-9.6 a 2.41,2.41 0 0 1 0.66,-0.38 c 23.4,-8.77 48.24,-32.3 73.4,-59 l 0.13,-0.15 c 38.64,-46.85 64.48,-103.56 74.87,-172.15 16,-143.64 -43.1,-240.83 -167.24,-297.8 l -0.2,-0.09 C 574.02,19.08 550.62,12.4 529.37,10.36 h -0.18 l -24.9,-4.53 a 2.56,2.56 0 0 0 -3,2.56 l 1.06,60.09 a 2.56,2.56 0 0 0 2.34,2.5 c 65.62,5.72 119.56,31.14 157,84.34 a 1.47,1.47 0 0 0 0.1,0.13 c 26,31 39,74.4 41.2,128.36 0.71,44.23 -7.63,87.3 -30.69,128.49 -23.68,48.55 -69.21,81.35 -123.2,108.05 a 220.07,220.07 0 0 1 -45.45,13.79 2.56,2.56 0 0 0 -2.08,2.49 l -0.31,59.89 a 2.56,2.56 0 0 0 2.28,2.58 c 35.45,5 64.53,27 86.75,67.44 a 2.74,2.74 0 0 1 0.23,0.53 c 11.79,38.29 10.81,75.3 -1.15,111.22 a 2.71,2.71 0 0 1 -0.24,0.52 c -23.83,41 -61.75,54.9 -106.42,50"
       fill="#3f4193"
       id="path1" />
    <path
       d="M 0.07015118,70.540894 1.511761e-4,8.8608942 a 2.56,2.56 0 0 1 2.5400000239,-2.56 l 155.1899988,-0.18 c 0,0 88.9,2.47 148.05,53.7899998 59.15,51.319996 92.56,104.879996 105.57,205.429996 13,100.18 -47.25,214.43 -74.24,239 -27.57,25.14 -67.36,55.17 -83.57,63.76 a 2.53,2.53 0 0 0 -1.32,1.89 l -0.91,6.41 a 2.56,2.56 0 0 0 0.72,2.17 c 5.71,5.67 36.89,37.81 49.29,74.85 10.31,30.82 18.14,146.43 22,155.41 4.3,10 18.85,62.67 95.18,102.67 75.84,39.74 160.58,6.24 160.58,6.24 0,0 104,-34.8 119.29,-165.85 0,0 10.13,-128.48 -77.3,-195.18 -84.31,-64.32 -101.64,-57 -117.75,-62.19 a 2.55,2.55 0 0 1 -1.79,-2.44 l -0.05,-62.65 a 2.55,2.55 0 0 1 2.13,-2.52 c 13.92,-2.41 91,-26.38 97.93,-118.15 7.39,-97.49 -67.69,-131 -63.09,-127.11 0,0 -9.72,-7.27 -36.22,-10 a 2.54,2.54 0 0 1 -2.28,-2.59 l 1.15,-62.4 a 2.93,2.93 0 0 0 -0.32,-1.17 c -1.84,-4.52 65,2.67 110.87,51.68 33.45,35.76 38.06,51.6 38.55,53.68 0.037,0.166 0.094,0.327 0.17,0.48 1.54,3.27 17.8,39.28 11.55,96.09 -6,54.39 -16.56,72.41 -17.78,74.35 a 1.9,1.9 0 0 0 -0.21,0.4 c -1.22,3.11 -15.39,38.09 -44.81,60.2 0,0 -7.7,5.15 3.87,11.56 15.08,8.35 52.7,24.35 83.57,60.29 30.87,35.94 36,43.63 51.47,71.88 17.17,31.39 18.12,18.227 29.78,81.157 12.09,65.42 -6.41,139.773 -6.41,139.773 0,0 -20.38,56.23 -38.31,74.4 -0.097,0.097 -0.185,0.205 -0.26,0.32 -1.91,2.84 -27.91,40.76 -75.6,73.14 -38.74,26.31 -88.46,34.36 -91.06,34.77 h -0.21 c -2.73,0.72 -58.52,14.75001 -141.22,-12.71 -84.82,-28.1 -131.15,-105.12 -131.15,-105.12 0,0 -28.32,-46.22 -33.51,-92.46 -4.84,-43.15 -2.81,-74.82 -2.66,-77 v -0.24 c -0.15,-3.68 -4.53,-88.84 -90.57,-107.26 a 2.57,2.57 0 0 1 -2,-2.5 l -0.07,-64.84 a 2.55,2.55 0 0 1 2.43,-2.56 c 9.08,-0.46 40.91,-2.67 50,-11.3 a 2,2 0 0 1 0.48,-0.35 c 5.1,-2.79 83,-45.67 94.6,-76.72 a 2.1,2.1 0 0 1 0.32,-0.59 c 2.48,-3.32 27.35,-37.79 39.48,-101.16 0.006,-0.07 0.006,-0.14 0,-0.21 0.3,-3.08 7.29,-75 -6.52,-106.42 l -0.06,-0.18 c -0.81,-2.48 -20.06,-61 -54,-92.35 -33.42,-30.8 -75.9,-60.259996 -145.27,-62.739996 l -133.6099988,0.15 a 2.56,2.56 0 0 1 -2.56000002,-2.56 z"
       fill="#02a756"
       id="path2" />
    <path
       d="m 484.01,894.29 c -40.24,-3.32 -70.9,-21.44 -97.57,-45.72 -20.66,-19.34 -33.93,-48.29 -41.28,-85 a 2.21,2.21 0 0 1 0,-0.37 l -5.22,-87.05 v -0.23 c -2,-13 -4,-25.8 -7.61,-33 a 2.22,2.22 0 0 1 -0.18,-0.49 c -9.32,-38.08 -28.47,-65.83 -53.91,-87 l -0.16,-0.13 C 221.23,514.49 184.03,497.59 159.77,496.46 a 2.55,2.55 0 0 1 -2.43,-2.56 l -0.08,-67.63 a 2.58,2.58 0 0 1 1.71,-2.41 c 59.85,-21.34 95.21,-62.52 88.07,-138.14 v -0.19 C 236.16,215.2 196.2,180.41 134.04,172.73 a 1.7,1.7 0 0 0 -0.39,0 L 5.36,175 A 2.56,2.56 0 0 1 2.75,172.44 L 2.68,106.08 a 2.55,2.55 0 0 1 2.56,-2.56 l 148.71,-0.17 a 2.48,2.48 0 0 1 0.61,0.07 q 68.81,16.38 105.06,61.42 l 0.1,0.11 c 20,21.15 35.58,50.35 47.58,86 9.54,32.84 11.63,65.5 -2.45,105.34 -13,33.75 -30.59,61.39 -54.82,85.81 a 2.46,2.46 0 0 0 -0.52,0.75 7.54,7.54 0 0 0 0.2,6.48 2.46,2.46 0 0 0 1.25,1.17 204.42,204.42 0 0 1 25.75,13.73 c 20.51,11.77 39.67,28.06 57.83,47.41 a 427.51,427.51 0 0 1 37.3,47.49 c 22.36,33 38.51,104.1 37.48,108.93 a 2.51,2.51 0 0 0 -0.06,0.72 c 1.8,25.9 3,58.22 3.91,93 a 3.45,3.45 0 0 0 0.07,0.55 c 8.44,35.92 32.17,57.5 69.39,66.45 l 18.82,20.66 z"
       fill="#3f4193"
       id="path3" />
  </g>
</svg>
