<svg xmlns="http://www.w3.org/2000/svg" width="14" height="16" fill="none" xmlns:v="https://vecta.io/nano"><path d="M7.312 6.283c.272.133.405.18.729.252a2.13 2.13 0 0 0 .477.035 1.51 1.51 0 0 0 .367-.044c.447-.157.666-.484.665-.891a1.7 1.7 0 0 0-.133-.567c-.108-.247-.359-.561-.714-.849s-.738-.488-1.056-.568c-1.019-.259-2.967.768-.336 2.633zM5.194.755c.387.013.772.052 1.166.122-.631.169-1.179.434-1.611.838-.57.533-.859 1.232-.949 2.039-.128 1.145.238 2.737.957 4.595l-1.492-.24-2.142-.346-.067-.264C.617 5.773.67 4.304 1.084 3.202 1.491 2.119 2.255 1.356 3.347.993 3.927.801 4.446.729 5.194.755z" stroke="#111b3f" stroke-width="1.5"/><mask id="A" fill="#fff"><path d="M3.392 15.903L.62 8.958c.011-.011.244.034.518.1.947.227 1.689.358 2.487.422l1.511.053c1.116-.001 1.463-.032 2.295-.203.885-.182 1.747-.535 2.34-.958 1.323-.944 1.751-2.415 1.237-4.248l-.164-.515c-.245-.617-.265-.595.187-.208.865.74 1.631 1.73 2 2.585.264.613.388 1.144.421 1.801.044.881-.14 1.702-.576 2.575-.352.705-.75 1.238-1.428 1.917-.866.867-1.799 1.522-3.072 2.157-1.319.658-2.938 1.194-4.501 1.49l-.361.07c-.06.013-.084-.006-.12-.094z"/></mask><path d="M3.392 15.903l1.386-.573h0l-1.386.573zM.62 8.958l1.061 1.061h0L.62 8.958zm.518.1l-.35 1.459h0l.35-1.459zm2.487.422l.122-1.495h0L3.624 9.48zm1.511.053l-.002-1.5.002 1.5zM7.43 9.33l.302 1.469h0L7.43 9.33zm2.34-.958l-.871-1.221h0l.871 1.221zm1.237-4.248l1.444-.406h0l-1.444.406zm-.164-.515l1.394-.554h0l-1.394.554zm.187-.208l.975-1.14h0l-.975 1.14zm2 2.585l1.377-.594h0l-1.377.594zm.421 1.801l-1.498.075h0l1.498-.075zm-.576 2.575l-1.341-.671h0l1.342.671zm-1.428 1.917l-1.061-1.06h0l1.061 1.06zm-3.072 2.157l.669 1.342h0l-.669-1.342zm-4.501 1.49l-.279-1.474h0l.279 1.474zm-.361.07l-.314-1.467h0l.314 1.467zm1.266-.667l-1.598-3.966-.818-2.059-.252-.643-.063-.164-.005-.014.017.053.03.12c.005.025.022.107.028.214a2.69 2.69 0 0 1-.014.309c-.034.163-.227.597-.423.838L-.441 7.897c-.195.24-.389.675-.423.838a2.69 2.69 0 0 0-.014.31c.006.108.023.191.028.216l.032.127.025.078.03.081.076.198.259.661.823 2.07 1.611 4 2.772-1.146zm-3.098-5.311c-.139.139-.279.225-.378.275a1.5 1.5 0 0 1-.253.101c-.122.036-.221.049-.271.054-.102.011-.182.008-.207.007l-.106-.009c-.014-.002-.007-.001.03.006l.292.064.7-2.917-.423-.093-.197-.033-.171-.016c-.033-.001-.119-.004-.226.007-.052.005-.154.018-.277.055-.093.028-.374.118-.634.378l2.121 2.121zm-.893.498c.998.239 1.819.386 2.715.459l.243-2.99c-.7-.057-1.363-.171-2.258-.386l-.7 2.917zm2.715.459l1.635.058-.004-3a16.68 16.68 0 0 1-1.387-.048l-.243 2.99zm1.635.058c1.188-.002 1.639-.037 2.594-.233l-.603-2.939c-.709.145-.95.171-1.995.172l.004 3zm2.594-.233c1.042-.214 2.111-.636 2.91-1.206L8.899 7.151c-.387.276-1.043.56-1.771.709l.603 2.939zm2.91-1.206c.913-.652 1.567-1.529 1.876-2.593.305-1.046.247-2.166-.067-3.282l-2.888.811c.201.716.187 1.249.075 1.633-.107.366-.329.697-.739.989l1.743 2.442zm1.809-5.875l-.214-.663L9.45 4.163c-.004-.011-.002-.005.008.023l.032.097.074.246 2.888-.811zm-.214-.663l-.126-.317c-.012-.033.006.011.024.087.008.033.035.149.036.306a1.48 1.48 0 0 1-.38.999c-.477.531-1.093.52-1.364.472-.245-.043-.415-.139-.455-.162-.104-.058-.166-.113-.14-.092l.223.191 1.95-2.28-.286-.243c-.031-.025-.139-.114-.276-.19-.057-.032-.24-.133-.496-.178-.281-.049-.906-.059-1.388.478a1.52 1.52 0 0 0-.388 1.029 1.62 1.62 0 0 0 .044.359 2.29 2.29 0 0 0 .084.271l.149.377 2.788-1.107zm-2.182 1.486c.729.623 1.337 1.435 1.597 2.039l2.755-1.188c-.477-1.107-1.401-2.275-2.402-3.131l-1.95 2.28zm1.597 2.039c.194.451.277.806.3 1.282l2.996-.149a6.38 6.38 0 0 0-.542-2.32L11.653 6.58zm.3 1.282c.03.597-.086 1.163-.42 1.83l2.683 1.342c.54-1.079.791-2.155.733-3.321l-2.996.149zm-.42 1.83c-.267.533-.56.939-1.148 1.528l2.122 2.12c.768-.769 1.27-1.43 1.708-2.306l-2.683-1.342zm-1.148 1.528c-.735.736-1.53 1.301-2.681 1.875l1.339 2.685c1.395-.696 2.467-1.441 3.464-2.439l-2.122-2.12zm-2.681 1.875c-1.186.592-2.673 1.086-4.11 1.358l.558 2.948c1.687-.32 3.439-.897 4.891-1.621l-1.339-2.685zm-4.11 1.358l-.396.077.628 2.934c-.002 0 .007-.001.03-.006l.079-.016.217-.042-.558-2.947zm-.396.077c.066-.014.234-.046.453-.02a1.44 1.44 0 0 1 .714.293c.189.147.294.306.34.383s.071.137.073.143l-2.772 1.146c.011.026.149.41.516.695.532.414 1.097.337 1.305.292l-.628-2.933z" fill="#111b3f" mask="url(#A)"/></svg>